<?xml version="1.0" encoding="utf-8"?>

<!DOCTYPE svg PUBLIC "-//W3C//DTD SVG 1.1//EN" "http://www.w3.org/Graphics/SVG/1.1/DTD/svg11.dtd">
<svg version="1.1" id="Layer_1" xmlns="http://www.w3.org/2000/svg" xmlns:xlink="http://www.w3.org/1999/xlink" x="0px" y="0px"
	 viewBox="0 0 765.959 1696.263" enable-background="new 0 0 765.959 1696.263" xml:space="preserve">
<g>
	<path fill="#FEFEFE" stroke="#FEFEFE" stroke-width="0.5" d="M383.704,48.458c6.241-1.137,12.412,1.007,18.593,1.615
		c29.59,5.174,53.438,31.424,57.106,61.044c1.206,11.675,0.399,23.748-3.858,34.764c-6.151,17.726-20.278,31.624-36.429,40.577
		c-12.612,4.437-26.051,8.474-39.53,6.291c-7.966-1.416-16.231-2.632-23.299-6.839c-1.147-0.718-2.253-1.456-3.38-2.153
		c-15.044-8.335-26.809-22.083-33.04-38.084c-4.855-13.01-4.596-27.227-2.871-40.806c4.506-23.628,22.671-43.617,44.993-52.012
		C368.959,50.213,376.426,49.715,383.704,48.458 M368.211,58.159c6.052,8.604,12.671,16.769,19.012,25.144
		c16.839,21.724,33.528,43.568,50.357,65.291c1.874,2.313,3.28,5.354,6.261,6.45c5.573-10.398,9.651-22.003,8.714-33.967
		c0.827-12.023-2.682-24.047-8.953-34.256C429.076,61.529,395.897,48.668,368.211,58.159 M323.387,132.084
		c2.492,14.715,10.458,28.444,21.844,38.084c12.592,11.236,29.74,16.5,46.449,16.161c5.184-0.449,10.668-0.608,15.264-3.35
		c-2.682-4.726-6.41-8.684-9.591-13.05c-11.445-15.114-23.16-30.029-34.665-45.103c-10.279-12.831-19.74-26.3-30.268-38.922
		C324.145,99.543,320.077,116.302,323.387,132.084 M382.049,109.912c-2.502,1.495-4.576,3.669-6.012,6.201
		c-1.007,5.772-0.349,13.668,5.832,16.261c6.839,3.769,16.43-0.758,18.015-8.375c1.785-4.666-0.798-9.96-4.397-13.02
		C391.919,107.509,386.256,108.117,382.049,109.912z"/>
	<path fill="#D1D2D4" stroke="#D1D2D4" stroke-width="0.5" d="M368.211,58.159c27.686-9.491,60.865,3.37,75.391,28.663
		c6.271,10.209,9.78,22.232,8.953,34.256c0.937,11.964-3.14,23.568-8.714,33.967c-2.981-1.097-4.387-4.137-6.261-6.45
		c-16.829-21.724-33.518-43.568-50.357-65.291C380.882,74.928,374.262,66.763,368.211,58.159z"/>
	<path fill="#D1D2D4" stroke="#D1D2D4" stroke-width="0.5" d="M323.387,132.084c-3.31-15.782,0.758-32.541,9.033-46.18
		c10.528,12.622,19.989,26.091,30.268,38.922c11.505,15.074,23.219,29.989,34.665,45.103c3.18,4.367,6.909,8.325,9.591,13.05
		c-4.596,2.742-10.079,2.901-15.264,3.35c-16.709,0.339-33.857-4.925-46.449-16.161C333.845,160.528,325.88,146.799,323.387,132.084
		z"/>
	<path fill="#59432C" stroke="#59432C" stroke-width="0.5" d="M310.576,111.058c2.134-2.064,3.479-5.104,6.42-6.191
		c-1.725,13.579-1.984,27.795,2.871,40.806c-10.817,0.688-21.714,1.356-32.481-0.259c-0.419-2.463,0.718-4.726,1.944-6.759
		C295.263,128.635,302.381,119.323,310.576,111.058z"/>
	<path fill="#221E1F" stroke="#221E1F" stroke-width="0.5" d="M382.049,109.912c4.207-1.795,9.87-2.403,13.439,1.067
		c3.599,3.061,6.181,8.355,4.397,13.02c-1.585,7.617-11.176,12.143-18.015,8.375c-6.181-2.592-6.839-10.488-5.832-16.261
		C377.473,113.58,379.546,111.407,382.049,109.912z"/>
	<path fill="#59432C" stroke="#59432C" stroke-width="0.5" d="M459.404,111.118c6.091,4.716,11.385,10.408,16.33,16.3
		c4.756,5.643,7.617,12.502,11.375,18.783c-6.291,0.917-12.662,0.279-18.982,0.489c-4.217,0.13-8.444,0.04-12.582-0.808
		C459.802,134.866,460.61,122.792,459.404,111.118z"/>
	<path fill="#231F20" stroke="#231F20" stroke-width="0.5" d="M270.428,153.449c2.353-6.859,10.618-8.165,16.958-8.036
		c10.767,1.615,21.664,0.947,32.481,0.259c6.231,16.001,17.995,29.75,33.04,38.084c-0.01,0.489-0.03,1.456-0.04,1.944
		c-13.07-0.798-26.2-0.748-39.251,0.289c-11.734,0.15-23.479-0.1-35.213,0.1c-4.576-0.688-8.743-5.344-8.195-10.129
		C270.378,168.464,269.94,160.926,270.428,153.449z"/>
	<path fill="#231F20" stroke="#231F20" stroke-width="0.5" d="M419.116,186.459c16.151-8.953,30.278-22.851,36.429-40.577
		c4.137,0.847,8.365,0.937,12.582,0.808c6.321-0.209,12.691,0.429,18.982-0.489c5.244-1.087,11.635-1.137,15.533,3.15
		c4.456,4.287,3.34,11.007,3.589,16.59c-0.249,6.121,1.017,13.639-4.277,18.065c-12.233,4.785-25.622,0.459-38.234,2.901
		c-9.81,0.678-19.66,0.11-29.49,0.289C429.195,187.017,424.021,187.885,419.116,186.459z"/>
	<path fill="#59432C" stroke="#59432C" stroke-width="0.5" d="M352.907,183.757c1.127,0.698,2.233,1.436,3.38,2.153
		c-5.414,1.834-11.166,1.236-16.769,1.266c-6.909,0.02-13.818-0.11-20.717,0.1c-0.369,2.433-0.568,4.895-0.558,7.368
		c-0.399-0.827-0.768-1.635-1.196-2.423c-0.309,4.985-0.668,10.707-4.626,14.307c-3.32,2.004-8.095,1.097-10.688,4.367
		c-2.453,3.041-4.506,6.47-5.703,10.189c-3.679,15.274-2.861,31.095-2.512,46.658c-0.778,0.11-2.323,0.329-3.091,0.439
		c-4.476-11.864-7.936-24.186-10.179-36.669c-0.469-8.594-2.253-17.078-2.044-25.702c0.03-6.57-0.389-13.16,0.199-19.72
		c11.734-0.199,23.479,0.05,35.213-0.1c13.05-1.037,26.18-1.087,39.251-0.289C352.878,185.213,352.897,184.246,352.907,183.757z"/>
	<path fill="#59432C" stroke="#59432C" stroke-width="0.5" d="M463.72,186.908c12.612-2.443,26.001,1.884,38.234-2.901
		c-1.715,1.047-3.48,2.004-5.244,2.931c-0.229,5.643-0.07,11.276,0.528,16.889c-1.296,9.461,0.18,19.112-1.406,28.533
		c-1.974,9.162-4.875,18.095-7.108,27.197c-0.359,2.602-2.672,3.898-4.805,4.925c-0.807-1.824-1.446-3.759-1.186-5.772
		c0.947-11.296,1.157-22.661,0.698-33.987c-0.179-6.271-3.888-11.824-8.733-15.553c-2.582-2.313-5.962-3.898-7.786-6.919
		C465.645,197.176,465.704,191.823,463.72,186.908z"/>
	<path fill="#F5B577" stroke="#F5B577" stroke-width="0.5" d="M356.287,185.911c7.068,4.207,15.333,5.424,23.299,6.839
		c13.479,2.183,26.918-1.854,39.53-6.291c4.905,1.426,10.079,0.558,15.114,0.738c9.83-0.179,19.68,0.389,29.49-0.289
		c1.984,4.915,1.924,10.269,3.19,15.343c1.824,3.021,5.204,4.606,7.786,6.919c4.845,3.729,8.554,9.282,8.733,15.553
		c0.459,11.326,0.249,22.691-0.698,33.987c-0.259,2.014,0.379,3.948,1.186,5.772c2.134-1.027,4.447-2.323,4.805-4.925
		c2.233-9.102,5.134-18.035,7.108-27.197c5.274,3.41,8.335,9.411,9.671,15.393c0.349,6.889,0.957,14.147-1.785,20.667
		c-2.044,5.114-4.875,10.089-9.052,13.768c-4.157,3.449-9.77,4.247-15.004,3.918c-5.413,10.857-11.266,21.554-18.793,31.115
		c-10.668,13.329-23.628,25.293-39.3,32.431c-1.695,0.907-3.669,1.535-4.905,3.061c-0.768,9.631,0.728,19.461-0.628,28.992
		c-7.128,9.531-12.612,20.119-19.321,29.919c-2.921,4.217-5.055,9.052-8.873,12.592c-5.354-8.694-10.568-17.497-16.48-25.821
		c-3.958-5.603-6.909-11.834-11.066-17.297c-0.877-1.067-1.396-2.363-1.276-3.739c-0.12-5.404-0.06-10.797,0.15-16.191
		c18.005,6.42,38.323,7.278,56.219,0c0.289-2.851,0.329-5.733,0.11-8.584c-12.552,4.117-26.011,6.311-39.151,3.968
		c-5.772-0.788-11.345-2.552-16.839-4.427c-25.732-10.408-45.591-31.923-58.333-56.149c-1.695-3.031-2.911-6.341-4.885-9.202
		c-2.702-0.857-5.623-0.279-8.395-0.728c-2.462-0.229-4.426-1.894-6.181-3.479c-3.808-3.539-7.427-7.507-9.312-12.432
		c-2.562-6.5-2.203-13.629-2.044-20.468c0.229-7.228,4.407-13.698,9.89-18.155c2.243,12.482,5.703,24.805,10.179,36.669
		c0.768-0.11,2.313-0.329,3.091-0.439c-0.349-15.563-1.166-31.385,2.512-46.658c1.196-3.719,3.25-7.148,5.703-10.189
		c2.592-3.27,7.368-2.363,10.688-4.367c3.958-3.599,4.317-9.322,4.626-14.307c0.429,0.788,0.798,1.595,1.196,2.423
		c-0.01-2.472,0.189-4.935,0.558-7.368c6.899-0.209,13.808-0.08,20.717-0.1C345.121,187.147,350.874,187.745,356.287,185.911
		 M338.84,215.042c-6.271,1.675-12.323,4.117-17.876,7.467c0.179,0.628,0.369,1.266,0.578,1.904
		c4.327-1.456,8.345-3.928,12.941-4.506c3.669-0.538,7.318-1.326,11.026-1.436c6.56,0.568,13.25,1.805,18.992,5.214
		c3.569,1.675,6.58,4.726,10.678,5.085c0.04-1.994,1.635-4.825-0.628-6.101C364.213,215.68,351.163,212.38,338.84,215.042
		 M413.663,220.146c-2.273,1.156-4.845,2.333-6.111,4.686c-0.03,1.934,0.897,3.679,1.595,5.443
		c7.826-4.746,15.802-10.289,25.203-11.007c5.274-0.199,10.638-0.359,15.852,0.718c4.427,0.837,8.404,3.41,12.99,3.559
		c-5.035-5.134-12.372-7.477-19.311-8.664C433.532,212.948,423.064,215.939,413.663,220.146 M346.906,232.19
		c-5.015,0.837-10.368,2.024-14.207,5.583c-2.931,1.396-5.653-1.206-8.375-1.994c0.987,2.283,2.074,4.516,3.101,6.789
		c-2.562-0.309-5.085-0.827-7.607-1.306c0.339,5.424,6.889,5.503,10.498,3.24c-0.738,0.668-1.436,1.356-2.104,2.084
		c1.057,1.047,2.114,2.124,3.26,3.101c-0.479-0.05-1.446-0.16-1.924-0.209c2.542,3.719,6.65,5.852,10.658,7.637
		c4.775,2.163,10.159,1.575,15.264,1.715c2.762-0.239,6.251,0.498,8.165-2.034c-0.847-0.09-2.522-0.259-3.37-0.349
		c2.841-0.738,5.693-1.545,8.434-2.642c1.336-1.316,0.907-3.4,1.206-5.075l0.698,0.439c-0.778,1.725-0.389,3.629-0.279,5.453
		c1.296-0.409,2.612-0.818,3.928-1.236c0.289-2.692-0.439-5.204-2.732-6.779C366.705,237.962,357.065,231.342,346.906,232.19
		 M426.783,235.061c-7.707,1.226-13.619,6.899-18.623,12.472c-1.396,1.256-1.525,3.131-1.735,4.875
		c1.565,0.419,3.14,0.827,4.746,1.206c0.279-1.336,0.608-2.652,0.808-3.988c-0.967,5.154,5.104,5.493,8.524,6.849
		c-1.376-0.219-2.133,0.339-2.283,1.675c7.597,1.436,15.622,3.858,23.199,0.857c3.449-1.585,8.295-2.512,9.611-6.57
		c1.236-0.877,2.353-1.904,3.529-2.881c3.071,0.867,8.145-0.349,8.305-4.277c-2.821,0.568-5.663,1.057-8.534,1.156
		c1.705-2.253,3.679-4.526,3.838-7.497c-1.665,0.788-3.28,1.715-5.015,2.313c-2.632,0.568-4.626-1.585-6.859-2.542
		C441.109,234.214,433.273,233.596,426.783,235.061 M373.395,289.675c2.851,6.52,8.395,12.392,15.393,14.316
		c4.995,0.309,9.611-2.582,13.399-5.593c2.443-2.173,5.593-4.207,6.201-7.677c-5.394,0.957-10.548,3.121-16.031,3.549
		C385.797,293.982,379.646,291.4,373.395,289.675 M360.684,314.061c0.887,2.233,2.203,4.536,4.526,5.533
		c4.167,6.58,11.864,9.631,19.132,11.286c6.41,0.15,13.369,1.117,19.212-2.233c5.902-3.15,11.455-7.816,14.037-14.147
		c-5.045,0.748-10.149,0.818-15.234,0.698c-3.908-2.223-8.036-0.558-11.954,0.588c-5.164-1.775-10.608-2.383-16.011-1.475
		C369.826,315.317,365.27,313.901,360.684,314.061z"/>
	<path fill="#7A411B" stroke="#7A411B" stroke-width="0.5" d="M338.84,215.042c12.323-2.662,25.373,0.638,35.711,7.627
		c2.263,1.276,0.668,4.107,0.628,6.101c-4.098-0.359-7.108-3.41-10.678-5.085c-5.743-3.41-12.432-4.646-18.992-5.214
		c-3.709,0.11-7.358,0.897-11.026,1.436c-4.596,0.578-8.614,3.051-12.941,4.506c-0.209-0.638-0.399-1.276-0.578-1.904
		C326.518,219.159,332.569,216.717,338.84,215.042z"/>
	<path fill="#7A411B" stroke="#7A411B" stroke-width="0.5" d="M413.663,220.146c9.401-4.207,19.87-7.198,30.218-5.264
		c6.939,1.186,14.277,3.529,19.311,8.664c-4.586-0.15-8.564-2.722-12.99-3.559c-5.214-1.077-10.578-0.917-15.852-0.718
		c-9.401,0.718-17.377,6.261-25.203,11.007c-0.698-1.765-1.625-3.509-1.595-5.443C408.817,222.479,411.39,221.303,413.663,220.146z"
		/>
	<path fill="#C47B49" stroke="#C47B49" stroke-width="0.5" d="M346.906,232.19c10.159-0.847,19.8,5.772,24.615,14.416
		c-4.586-3.479-8.803-7.647-14.277-9.72c-7.886-3.021-16.849-2.363-24.545,0.887C336.537,234.214,341.891,233.027,346.906,232.19z"
		/>
	<path fill="#322C17" stroke="#322C17" stroke-width="0.5" d="M332.699,237.773c7.697-3.25,16.659-3.908,24.545-0.887
		c5.473,2.074,9.691,6.241,14.277,9.72c-0.229,0.648-0.688,1.924-0.917,2.562l-0.698-0.439c-3.469-2.333-7.228-4.157-11.016-5.882
		c0.588,4.805-0.608,9.73-4.915,12.462c-3.629,1.655-7.437,0.498-10.269-2.084c-3.739-3.26-2.313-8.245-1.456-12.422
		c-4.267,0.1-8.185,1.834-11.934,3.699c-3.609,2.263-10.159,2.183-10.498-3.24c2.522,0.479,5.045,0.997,7.607,1.306
		c-1.027-2.273-2.114-4.506-3.101-6.789C327.046,236.567,329.768,239.169,332.699,237.773 M344.971,243.156
		c-0.02,1.356-0.02,2.712-0.01,4.068c1.366,0.05,2.752,0.1,4.137,0.14c0.03-1.466,0.06-2.921,0.09-4.367
		C347.773,243.037,346.367,243.087,344.971,243.156z"/>
	<path fill="#9B5F42" stroke="#9B5F42" stroke-width="0.5" d="M426.783,235.061c6.49-1.466,14.326-0.847,19.511,3.649
		c-8.694-2.114-18.504-2.951-26.669,1.416c-3.858,1.824-7.198,4.606-9.631,8.105c0.548-0.12,1.645-0.359,2.203-0.469
		c-0.06,0.459-0.17,1.396-0.219,1.864c-0.199,1.336-0.528,2.652-0.808,3.988c-1.605-0.379-3.18-0.788-4.746-1.206
		c0.209-1.745,0.339-3.619,1.735-4.875C413.164,241.96,419.076,236.287,426.783,235.061z"/>
	<path fill="#322C17" stroke="#322C17" stroke-width="0.5" d="M419.625,240.126c8.165-4.367,17.975-3.529,26.669-1.416
		c2.233,0.957,4.227,3.111,6.859,2.542c1.735-0.598,3.35-1.525,5.015-2.313c-0.16,2.971-2.134,5.244-3.838,7.497
		c2.871-0.1,5.713-0.588,8.534-1.156c-0.159,3.928-5.234,5.144-8.305,4.277c-4.945-2.313-9.192-6.51-14.905-6.759
		c0.379,2.293,1.147,4.586,1.017,6.949c-0.618,2.084-1.884,3.898-2.951,5.762c-1.834,0.508-3.639,1.137-5.483,1.505
		c-2.223-0.1-4.267-1.047-6.381-1.595c-3.011-3.24-3.36-7.617-2.931-11.804c-3.749,0.947-7.228,2.592-10.727,4.147
		c-0.558,0.11-1.655,0.349-2.203,0.469C412.426,244.732,415.766,241.95,419.625,240.126 M431.818,247.284
		c1.037,1.884,3.15,2.014,5.085,2.024c0.07-1.705,0.01-3.41-0.199-5.094C434.589,243.745,431.548,244.672,431.818,247.284z"/>
	<path fill="#F2EBE8" stroke="#F2EBE8" stroke-width="0.5" d="M330.316,244.502c3.749-1.864,7.667-3.599,11.934-3.699
		c-0.857,4.177-2.283,9.162,1.456,12.422c-0.379,0.359-1.137,1.057-1.515,1.406c-3.778-1.176-7.308-2.971-10.717-4.945
		c-1.146-0.977-2.203-2.054-3.26-3.101C328.88,245.858,329.578,245.17,330.316,244.502z"/>
	<path fill="#FDFCFC" stroke="#FDFCFC" stroke-width="0.5" d="M344.971,243.156c1.396-0.07,2.802-0.12,4.217-0.16
		c-0.03,1.446-0.06,2.901-0.09,4.367c-1.386-0.04-2.772-0.09-4.137-0.14C344.952,245.868,344.952,244.512,344.971,243.156z"/>
	<path fill="#F2ECE8" stroke="#F2ECE8" stroke-width="0.5" d="M358.889,242.847c3.788,1.725,7.547,3.549,11.016,5.882
		c-0.299,1.675,0.13,3.759-1.206,5.075c-2.742,1.097-5.593,1.904-8.434,2.642c-2.153-0.1-4.257-0.488-6.291-1.137
		C358.281,252.578,359.477,247.653,358.889,242.847z"/>
	<path fill="#F2ECE9" stroke="#F2ECE9" stroke-width="0.5" d="M412.197,247.762c3.499-1.555,6.979-3.2,10.727-4.147
		c-0.429,4.187-0.08,8.564,2.931,11.804c-1.705,0.718-3.529,1.037-5.354,1.057c-3.42-1.356-9.491-1.695-8.524-6.849
		C412.028,249.158,412.137,248.221,412.197,247.762z"/>
	<path fill="#F6F6F6" stroke="#F6F6F6" stroke-width="0.5" d="M431.818,247.284c-0.269-2.612,2.772-3.539,4.885-3.071
		c0.209,1.685,0.269,3.39,0.199,5.094C434.968,249.298,432.854,249.168,431.818,247.284z"/>
	<path fill="#F2ECE8" stroke="#F2ECE8" stroke-width="0.5" d="M439.654,242.798c5.713,0.249,9.96,4.446,14.905,6.759
		c-1.176,0.977-2.293,2.004-3.529,2.881c-4.197,1.505-8.763,4.845-13.31,3.071c1.067-1.864,2.333-3.679,2.951-5.762
		C440.8,247.384,440.033,245.091,439.654,242.798z"/>
	<path fill="#90503D" stroke="#90503D" stroke-width="0.5" d="M371.521,246.606c2.293,1.575,3.021,4.088,2.732,6.779
		c-1.316,0.419-2.632,0.827-3.928,1.236c-0.11-1.824-0.498-3.729,0.279-5.453C370.833,248.53,371.292,247.254,371.521,246.606z"/>
	<path fill="#CB8A58" stroke="#CB8A58" stroke-width="0.5" d="M329.548,249.477c0.479,0.05,1.446,0.16,1.924,0.209
		c3.41,1.974,6.939,3.769,10.717,4.945c0.379-0.349,1.137-1.047,1.515-1.406c2.831,2.582,6.64,3.739,10.269,2.084
		c2.034,0.648,4.137,1.037,6.291,1.137c0.847,0.09,2.522,0.259,3.37,0.349c-1.914,2.532-5.404,1.795-8.165,2.034
		c-5.104-0.14-10.488,0.449-15.264-1.715C336.198,255.329,332.091,253.196,329.548,249.477z"/>
	<path fill="#C58757" stroke="#C58757" stroke-width="0.5" d="M437.72,255.509c4.546,1.775,9.112-1.565,13.31-3.071
		c-1.316,4.058-6.161,4.985-9.611,6.57c-7.577,3.001-15.603,0.578-23.199-0.857c0.15-1.336,0.907-1.894,2.283-1.675
		c1.824-0.02,3.649-0.339,5.354-1.057c2.114,0.548,4.157,1.495,6.381,1.595C434.081,256.645,435.885,256.017,437.72,255.509z"/>
	<path fill="#B97242" stroke="#B97242" stroke-width="0.5" d="M373.395,289.675c6.251,1.725,12.402,4.307,18.962,4.596
		c5.483-0.429,10.638-2.592,16.031-3.549c-0.608,3.469-3.759,5.503-6.201,7.677c-3.788,3.011-8.404,5.902-13.399,5.593
		C381.79,302.067,376.246,296.195,373.395,289.675z"/>
	<path fill="#7E261A" stroke="#7E261A" stroke-width="0.5" d="M360.684,314.061c4.586-0.16,9.142,1.256,13.708,0.249
		c5.404-0.907,10.847-0.299,16.011,1.475c3.918-1.147,8.046-2.811,11.954-0.588c4.257,1.456,8.833,0.957,13.25,1.296
		c-1.475,1.595-2.891,3.42-5.005,4.177c-7.368,2.951-15.463,2.742-23.259,2.652c-7.547,0-14.835-2.094-22.133-3.729
		C362.887,318.597,361.571,316.294,360.684,314.061z"/>
	<path fill="#9F3025" stroke="#9F3025" stroke-width="0.5" d="M402.357,315.197c5.085,0.12,10.189,0.05,15.234-0.698
		c-2.582,6.331-8.135,10.997-14.037,14.147c-5.842,3.35-12.801,2.383-19.212,2.233c-7.268-1.655-14.965-4.706-19.132-11.286
		c7.298,1.635,14.586,3.729,22.133,3.729c7.796,0.09,15.892,0.299,23.259-2.652c2.114-0.758,3.529-2.582,5.005-4.177
		C411.19,316.155,406.614,316.653,402.357,315.197z"/>
	<path fill="#C3D8E6" stroke="#C3D8E6" stroke-width="0.5" d="M125.2,343.721c8.215-7.108,15.244-15.523,23.778-22.272
		c3.44,3.071,6.44,6.59,9.312,10.189c-7.258,7.437-15.054,14.316-22.282,21.784l-0.877,0.1
		C130.603,352.205,127.323,347.798,125.2,343.721z"/>
	<path fill="#0AAFDD" stroke="#0AAFDD" stroke-width="0.5" d="M158.289,331.637c1.157-1.406,3.111-0.887,4.716-1.107
		c1.505,3.908-1.117,7.427-4.098,9.681c-7.996,7.318-16.191,14.406-24.147,21.774c-2.263,1.964-4.676,4.287-7.796,4.616
		c-3.719,0.1-7.437,0.02-11.156,0.209c-0.379-5.334-0.269-10.668-0.239-15.991l0.04-0.219c0.748,5.075,0.239,10.229,0.439,15.333
		c7.408-2.871,13.658-7.856,19.959-12.512C143.235,345.954,151.031,339.075,158.289,331.637z"/>
	<path fill="#F4B476" stroke="#F4B476" stroke-width="0.5" d="M99.009,354.777c3.619-4.706,11.545-9.023,16.56-3.958
		c-0.03,5.324-0.14,10.658,0.239,15.991c3.719-0.189,7.437-0.11,11.156-0.209c1.904,1.745,3.918,3.858,3.759,6.67
		c0.05,8.923-4.686,16.909-6.231,25.562c-1.904,6.69-1.914,13.658-1.834,20.557c-4.516,1.276-9.102,2.303-13.589,3.709
		c-9.062,2.961-18.504,4.496-27.726,6.899c-2.762-4.955-5.035-10.149-7.756-15.114c-1.206-2.114-2.084-4.387-2.622-6.749
		c1.326-1.196,2.682-2.373,3.998-3.599c4.088,2.313,8.394,5.015,13.3,4.666c6.829-0.389,13.489-2.173,20.099-3.838
		c3.39-1.137,7.756-1.874,9.302-5.573c2.074-4.287,4.217-8.544,6.281-12.831c-6.231,2.622-11.246,9.222-18.733,7.497
		c-4.277,0.13-5.284-4.367-6.211-7.597c-0.778,0.409-1.545,0.828-2.303,1.266c-0.01-0.758-0.04-2.273-0.05-3.031
		c-2.423,1.206-4.746,2.692-7.358,3.459c-2.413,0.07-4.756-0.658-7.088-1.127c-1.326,1.894-2.702,3.928-4.975,4.756
		c-3.878,1.625-7.049,4.447-10,7.358c-4.297-7.437-7.368-15.822-8.355-24.396c-0.778-4.446,2.333-10.358,7.447-9.681
		c2.722-0.07,4.526,2.333,6.54,3.828c-0.748-3.121-2.273-7.198,0.867-9.521c2.981-3.18,7.547-1.675,10.677,0.419
		c1.525-2.293,2.512-5.553,5.583-6.131C92.978,352.763,96.128,353.651,99.009,354.777 M104.243,377.159
		c-0.199,2.104-0.269,4.227-0.169,6.351c2.064-0.588,3.888-1.785,4.297-4.038C106.995,378.674,105.629,377.907,104.243,377.159z"/>
	<path fill="#CB8D59" stroke="#CB8D59" stroke-width="0.5" d="M359.507,352.125c5.493,1.874,11.066,3.639,16.839,4.427
		c13.14,2.343,26.599,0.15,39.151-3.968c0.219,2.851,0.179,5.733-0.11,8.584c-17.896,7.278-38.214,6.42-56.219,0
		C358.889,358.147,358.849,355.096,359.507,352.125z"/>
	<path fill="#98B7AB" stroke="#98B7AB" stroke-width="0.5" d="M104.243,377.159c1.386,0.748,2.752,1.515,4.127,2.313
		c-0.409,2.253-2.233,3.45-4.297,4.038C103.974,381.386,104.044,379.263,104.243,377.159z"/>
	<path fill="#336FA9" stroke="#336FA9" stroke-width="0.5" d="M341.203,395.104c5.992-5.124,12.492-9.701,19.092-14.007
		c4.157,5.463,7.108,11.694,11.066,17.297c5.912,8.325,11.126,17.128,16.48,25.821c3.818-3.539,5.952-8.375,8.873-12.592
		c6.71-9.8,12.193-20.388,19.321-29.919c6.59,3.798,12.452,8.714,18.594,13.18c-0.17,3.699-0.09,7.407-0.12,11.116
		c-0.598-0.1-1.785-0.279-2.373-0.369c-5.573,14.137-7.856,29.281-12.971,43.558c-3.539-1.236-6.201-3.858-8.694-6.53
		c-7.388-5.812-14.356-12.193-22.083-17.557c-7.836,5.264-14.496,12.053-22.332,17.337c-3.639,2.333-6.002,7.188-10.717,7.338
		c-3.629-14.695-8.514-29.082-11.146-44.006c-0.399-1.924-0.887-3.828-1.386-5.703c-1.396,7.059-0.199,14.316-0.937,21.455
		C340.525,412.771,341.452,403.908,341.203,395.104z"/>
	<path fill="#05ABDA" stroke="#05ABDA" stroke-width="0.5" d="M89.289,388.554c2.612-0.768,4.935-2.253,7.358-3.459
		c0.01,0.758,0.04,2.273,0.05,3.031c-7.786,4.666-15.323,9.94-21.734,16.41c-1.316,1.226-2.672,2.403-3.998,3.599
		c-3.101,2.792-5.483,6.261-8.524,9.112c-5.334,4.805-8.135,11.675-13.11,16.789c-0.927,0.419-1.874,0.798-2.831,1.127
		c0.05-1.854-0.05-3.749,0.548-5.523c4.277-11.435,11.665-21.455,20.179-30.098c2.951-2.911,6.121-5.733,10-7.358
		c2.273-0.827,3.649-2.861,4.975-4.756C84.533,387.896,86.876,388.624,89.289,388.554z"/>
	<path fill="#D29369" stroke="#D29369" stroke-width="0.5" d="M96.696,388.126c0.758-0.439,1.525-0.857,2.303-1.266
		c0.927,3.23,1.934,7.727,6.211,7.597c7.487,1.725,12.502-4.875,18.733-7.497c-2.064,4.287-4.207,8.544-6.281,12.831
		c-1.545,3.699-5.912,4.437-9.302,5.573c-6.61,1.665-13.27,3.449-20.099,3.838c-4.905,0.349-9.212-2.353-13.3-4.666
		C81.373,398.065,88.91,392.792,96.696,388.126z"/>
	<path fill="#D1D2D4" stroke="#D1D2D4" stroke-width="0.5" d="M318.173,410.787c7.717-5.164,14.516-11.774,23.03-15.682
		c0.249,8.803-0.678,17.666,0.668,26.42c0.329,41.414-0.06,82.848,0.189,124.262c1.446,11.246,0.638,22.591,0.837,33.897
		c-0.05,32.661,0.11,65.331-0.16,97.992c-3.479-10.677,0.548-22.232-2.373-33.049c-3.868-13.28-7.148-26.729-10.638-40.108
		c-3.041-10.717-4.805-21.744-7.677-32.501c-5.463-20.468-10.777-40.975-16.081-61.483c-0.947-4.078-2.692-8.066-2.722-12.293
		c1.137-3.938,4.038-7.049,6.191-10.458c4.028-6.251,8.584-12.173,12.103-18.743c-10.299-0.708-20.627-0.189-30.936-0.249
		c-2.213-0.17-5.244,0.159-6.281-2.323c-3.28-6.052-4.636-12.981-8.295-18.853c9.222-10.169,20.179-18.544,30.467-27.586
		C310.187,416.709,314.046,413.558,318.173,410.787z"/>
	<path fill="#6996B3" stroke="#6996B3" stroke-width="0.5" d="M434.629,394.885l0.449,0.718c0.788,7.158,0.08,14.386,0.249,21.574
		c0.259,12.971-0.628,25.921-0.399,38.882c0.01,30.238,0,60.486,0,90.724c-0.07,6.221,0.628,12.542-0.877,18.663l-0.1-0.907
		c-0.937-10.538-0.199-21.146-0.439-31.714c-0.01-29.58,0.04-59.16-0.02-88.74c-0.02-5.663,1.007-11.276,0.977-16.939
		c-0.03-7.049-0.07-14.097,0.04-21.146C434.539,402.293,434.459,398.584,434.629,394.885z"/>
	<path fill="#D1D2D4" stroke="#D1D2D4" stroke-width="0.5" d="M435.078,395.603c3.789,0.429,6.909,2.782,10.199,4.516
		c21.405,11.974,40.477,27.626,58.203,44.475c-1.436,0.828-2.961,1.735-3.39,3.469c-2.632,7.088-5.613,14.077-9.342,20.667
		c-11.884,0.877-23.808-0.309-35.691,0.548c4.825,9.401,11.804,17.457,17.248,26.479c0.977,1.456,1.027,3.22,0.568,4.885
		c-11.814,45.95-23.897,91.831-35.672,137.791c-0.698,2.921-1.665,5.763-2.851,8.524c-1.067-10.767-0.209-21.594-0.469-32.391
		c0.09-16.37-0.229-32.75,0.169-49.121c1.505-6.121,0.808-12.442,0.877-18.663c0-30.238,0.01-60.486,0-90.724
		c-0.229-12.961,0.658-25.911,0.399-38.882C435.157,409.989,435.865,402.761,435.078,395.603z"/>
	<path fill="#075C95" stroke="#075C95" stroke-width="0.5" d="M341.871,421.524c0.738-7.138-0.459-14.396,0.937-21.455
		c0.498,1.874,0.987,3.779,1.386,5.703c2.632,14.925,7.517,29.311,11.146,44.006c4.716-0.15,7.078-5.005,10.717-7.338
		c1.944,8.065,10.767,12.123,13.429,19.68c-1.655,12.193-3.629,24.396-4.137,36.718c-1.695,8.564-1.525,17.327-2.752,25.951
		c-0.678,5.174-0.249,10.418-0.957,15.583c-2.452,12.582-3.081,25.423-3.778,38.194c-1.097,8.644-2.572,17.258-3.131,25.971
		c-0.419,8.694-2.263,17.258-2.313,25.991c-0.169,9.8-2.143,19.441-2.692,29.211c-0.469,4.197,2.223,7.697,4.207,11.126
		c5.174,8.813,10.219,17.696,15.483,26.469c2.752,4.546,5.025,9.471,8.763,13.349c8.973-14.307,17.198-29.072,25.851-43.578
		c2.293-3.459,2.253-7.746,1.974-11.714c-0.977-10.289-2.891-20.478-3.479-30.806c-0.319-7.019-2.014-13.908-2.044-20.946
		c-0.189-11.744-2.203-23.339-3.649-34.954c-0.309-10.418-1.256-20.787-2.453-31.125c-0.808-4.855-1.775-9.711-1.725-14.655
		c-0.01-7.059-1.495-13.997-1.695-21.026c-0.209-6.7-2.213-13.22-1.994-19.939c0.219-6.072-1.775-11.914-2.024-17.936
		c-0.439-3.888,2.871-6.53,5.085-9.242c3.091-3.798,7.258-7.128,8.444-12.103c2.492,2.672,5.154,5.294,8.694,6.53
		c5.114-14.277,7.397-29.421,12.971-43.558c0.588,0.09,1.775,0.269,2.373,0.369c-0.11,7.049-0.07,14.097-0.04,21.146
		c0.03,5.663-0.997,11.276-0.977,16.939c0.06,29.58,0.01,59.16,0.02,88.74c0.239,10.568-0.498,21.176,0.439,31.714
		c-0.608,11.345-0.14,22.721-0.289,34.076c0.13,70.456-0.409,140.912-0.199,211.367c0.239,5.992-0.588,11.954-0.618,17.945
		c0.02,33.289,0.01,66.578,0.01,99.866c-29.55,0.588-59.14-0.199-88.68,0.379c-0.229,0.429-0.688,1.276-0.917,1.705l-0.08-0.708
		c0.189-76.946-0.289-153.902-0.169-230.848c-0.1-6.889,0.249-13.778-0.269-20.647c0.269-32.661,0.11-65.331,0.16-97.992
		c-0.199-11.306,0.608-22.651-0.837-33.897C341.811,504.372,342.2,462.938,341.871,421.524z"/>
	<path fill="#FFFFFF" stroke="#FFFFFF" stroke-width="0.5" d="M109.069,423.099c4.486-1.406,9.072-2.433,13.589-3.709
		c4.088,12.293,9.461,24.117,13.978,36.26c17.746,45.043,35.542,90.066,53.208,135.139c0.498,1.286,2.064,4.766,3.489,2.393
		c15.862-34.415,31.205-69.15,49.111-102.578c4.785-8.654,9.421-17.517,15.722-25.183c5.862-6.012,11.734-12.053,17.866-17.806
		c3.659,5.872,5.015,12.801,8.295,18.853c1.037,2.482,4.068,2.153,6.281,2.323c10.309,0.06,20.637-0.459,30.936,0.249
		c-3.519,6.57-8.075,12.492-12.103,18.743c-2.153,3.41-5.055,6.52-6.191,10.458c0.03,4.227,1.775,8.215,2.722,12.293
		c5.304,20.508,10.618,41.015,16.081,61.483c2.871,10.757,4.636,21.784,7.677,32.501c3.489,13.379,6.769,26.828,10.638,40.108
		c2.921,10.817-1.107,22.372,2.373,33.049c0.518,6.869,0.17,13.758,0.269,20.647c-0.12,76.946,0.359,153.902,0.169,230.848
		c-0.758,10.099-0.09,20.238-0.299,30.358c-0.08,74.444,0.199,148.887,0.04,223.341c0,6.66,1.306,13.25,1.017,19.919
		c-0.289,7.607,0.399,15.234-0.239,22.821c-4.855,3.49-11.425,1.924-16.619,4.696c-7.896,0.897-15.792,1.825-23.718,2.502
		c-6.869,0.548-13.768,0.12-20.647,0.449c-12.223,1.715-24.605,0.538-36.908,0.887c-13.629,0.359-27.217-0.638-40.836-1.057
		c-13.359-0.06-26.709-0.748-39.998-1.924c-12.671-0.07-25.243-1.735-37.875-2.432c0-8.424,2.263-16.6,3.121-24.934
		c0.638-6.969,1.934-13.848,2.632-20.807c2.851-11.864,3.4-24.177,6.341-36.04c1.316-4.676,0.937-9.641,2.453-14.247
		c1.017-3.1,0.917-6.37,0.827-9.571c0.399,0.907,0.808,1.834,1.216,2.782c0.06-3.2,0.349-6.381,0.997-9.501
		c21.206-111.461,47.845-221.806,75.61-331.791c6.092-21.814,11.764-43.747,17.048-65.76c6.819-26.031,13.778-52.012,20.817-77.973
		c1.326-4.766,2.981-9.461,3.489-14.396c-4.137,2.363-6.959,6.301-10.448,9.441c-7.348,7.268-14.635,14.606-21.684,22.173
		c-11.026,10.259-21.525,21.176-33.648,30.178c-4.526,3.37-9.152,7.158-14.885,8.135c-2.492,0.459-5.174-0.319-6.969-2.104
		c-6.57-6.151-10.658-14.306-14.635-22.232c-14.047-29.062-24.067-59.838-34.226-90.405
		c-16.081-50.118-30.557-100.744-43.807-151.679C90.565,427.596,100.006,426.06,109.069,423.099 M195.376,957.006
		c-0.808,5.673-0.638,11.425-0.02,17.118c5.134,0.987,10.368,0.469,15.563,0.548c34.904,0.02,69.808-0.04,104.722,0.04
		c1.585-0.259,3.988,0.389,4.785-1.495c0.748-5.433,0.369-10.967,0.01-16.41c-32.192-0.219-64.384-0.03-96.566-0.09
		C214.369,956.876,204.858,956.338,195.376,957.006z"/>
	<path fill="#072144" stroke="#072144" stroke-width="0.5" d="M366.057,442.441c7.836-5.284,14.496-12.073,22.332-17.337
		c7.727,5.364,14.695,11.744,22.083,17.557c-1.186,4.975-5.354,8.305-8.444,12.103c-2.213,2.712-5.523,5.354-5.085,9.242
		c0.249,6.022,2.243,11.864,2.024,17.936c-0.219,6.72,1.785,13.24,1.994,19.939c0.199,7.029,1.685,13.967,1.695,21.026
		c-0.05,4.945,0.917,9.8,1.725,14.655c1.196,10.339,2.144,20.707,2.453,31.125c1.446,11.615,3.459,23.209,3.649,34.954
		c0.03,7.039,1.725,13.928,2.044,20.946c0.588,10.329,2.502,20.518,3.479,30.806c0.279,3.968,0.319,8.255-1.974,11.714
		c-8.654,14.506-16.879,29.271-25.851,43.578c-3.739-3.878-6.012-8.803-8.763-13.349c-5.264-8.773-10.309-17.656-15.483-26.469
		c-1.984-3.43-4.676-6.929-4.207-11.126c0.548-9.77,2.522-19.411,2.692-29.211c0.05-8.733,1.894-17.297,2.313-25.991
		c0.558-8.714,2.034-17.327,3.131-25.971c0.698-12.771,1.326-25.612,3.778-38.194c0.708-5.164,0.279-10.408,0.957-15.583
		c1.226-8.624,1.057-17.387,2.752-25.951c0.508-12.323,2.482-24.525,4.137-36.718C376.825,454.564,368.002,450.506,366.057,442.441z
		"/>
	<path fill="#FFFFFF" stroke="#FFFFFF" stroke-width="0.5" d="M500.09,448.063c0.429-1.735,1.954-2.642,3.39-3.469
		c12.711,12.971,24.944,26.47,35.582,41.215c5.962,7.816,10.987,16.29,16.4,24.486c5.184,8.963,10.787,17.816,14.616,27.456
		c-9.461,13.898-18.334,28.194-28.164,41.833c-6.969,10.977-14.476,21.604-21.445,32.591c-2.472,4.147-6.171,7.637-7.846,12.223
		c0.299,2.682,1.286,5.234,2.133,7.796c5.115-5.374,8.594-11.993,13.001-17.906c7.258-9.76,13.31-20.358,20.657-30.049
		c3.709-5.244,7.118-10.707,11.056-15.792c7.328-10.378,13.579-21.624,22.073-31.125c5.942,2.732,11.944,5.434,17.527,8.883
		c1.914,3.001,2.762,6.55,4.706,9.541c2.153,2.343,5.254,3.489,8.045,4.925c14.735,6.869,29.51,13.648,44.265,20.468
		c4.407,2.223,9.411,1.625,14.007,0.379c8.923,3.42,17.088,8.434,25.672,12.592c1.854,0.937,3.619,2.064,5.354,3.24
		c-16.689,21.196-33.378,42.411-50.277,63.447c-4.018,4.317-8.165,8.554-11.455,13.479c-3.15,4.726-7.677,8.385-10.468,13.359
		c-1.336,2.293-2.931,4.417-4.726,6.361c-2.263-3.091-5.104-5.683-7.587-8.574c-4.885-5.463-9.571-11.485-16.231-14.885
		c-1.775-1.097-3.868-0.798-5.802-0.528c3.888,11.994,13.948,20.318,20.737,30.577c-8.793-6.74-15.234-16.101-24.525-22.262
		c-2.802-2.433-6.5-2.991-10.079-2.732c0.528,2.462,1.266,4.955,2.811,7.019c3.41,4.825,6.979,9.581,11.226,13.738
		c2.034,2.004,3.749,4.307,5.204,6.779c-8.345-4.516-14.725-14.107-25.044-13.878c-0.319,4.616,2.054,8.634,4.845,12.093
		c4.018,5.842,9.681,10.259,13.878,15.951c-5.473-2.482-9.75-6.819-14.965-9.691c-2.642-1.615-5.782-1.416-8.694-0.997
		c0.498,6.301,5.364,10.737,9.112,15.353c3.798,4.417,7.567,8.933,12.143,12.592c-6.081,7.597-12.053,15.273-18.085,22.9
		c-3.569,4.905-7.816,9.312-10.957,14.526c-0.738-5.094-3.2-9.691-4.636-14.586c-9.82-27.895-18.723-56.119-28.593-84.005
		c-2.572-7.059-3.838-14.685-7.796-21.176c0.06,6.002,2.024,11.724,3.549,17.467c8.514,31.554,16.5,63.258,24.755,94.882
		c1.545,6.131,3.639,12.143,4.437,18.434c0.548,4.307,1.755,8.514,3.788,12.362c2.253,4.466,2.473,9.571,3.769,14.346
		c2.482,9.78,4.925,19.581,7.278,29.391c6.211,21.883,10.957,44.146,16.49,66.209c20.996,88.79,40.986,177.899,55.81,267.965
		c1.824,12.243,3.948,24.446,5.364,36.758c1.067,6.121,1.774,12.302,2.044,18.524c-16.56,1.615-33.159,2.941-49.809,2.652
		c3.061,0.249,6.161,0.379,9.212,0.937c-13.698-0.02-27.347,1.037-41.035,0.987c-5.483,0.189-10.987-0.319-16.44,0.379
		c-7.417,1.196-14.955,0.429-22.422,0.638c-12.632-0.189-25.283,0.489-37.885-0.608c-4.895-0.239-9.84,0.05-14.675-0.837
		c-14.596-1.515-29.231-2.811-43.597-5.902c-0.688-9.322-0.04-18.663-0.07-27.995c0.02-39.171-0.06-78.342,0.04-117.513
		c1.356-9.631,0.738-19.361,0.867-29.042c0-41.484-0.09-82.968,0.229-124.452c0-33.289,0.01-66.578-0.01-99.866
		c0.03-5.992,0.857-11.954,0.618-17.945c-0.209-70.456,0.329-140.912,0.199-211.367c0.15-11.355-0.319-22.731,0.289-34.076
		l0.1,0.907c-0.399,16.37-0.08,32.75-0.169,49.121c0.259,10.797-0.598,21.624,0.469,32.391c1.186-2.762,2.153-5.603,2.851-8.524
		c11.774-45.96,23.857-91.841,35.672-137.791c0.459-1.665,0.409-3.43-0.568-4.885c-5.443-9.023-12.422-17.078-17.248-26.479
		c11.884-0.857,23.808,0.329,35.691-0.548C494.477,462.141,497.458,455.152,500.09,448.063 M456.283,956.777
		c-0.439,5.184-0.728,10.428-0.159,15.613c0.02,1.376,0.728,2.074,2.124,2.124c3.599,0.419,7.248,0.13,10.877,0.169
		c29.57-0.01,59.15-0.01,88.73-0.01c7.836-0.309,15.752,0.708,23.538-0.558c0.209-5.753,1.057-11.714-0.668-17.307
		C539.241,956.637,497.767,956.687,456.283,956.777z"/>
	<path fill="#01ACA3" stroke="#01ACA3" stroke-width="0.5" d="M570.077,537.751c3.858-5.553,7.258-11.435,11.535-16.679
		c8.634,4.676,17.477,8.993,26.31,13.319c-3.798,3.33-4.506,9.112-8.853,11.814c-5.583-3.449-11.585-6.151-17.527-8.883
		c-8.494,9.501-14.745,20.747-22.073,31.125c-3.938,5.085-7.348,10.548-11.056,15.792c-7.348,9.691-13.399,20.288-20.657,30.049
		c-4.407,5.912-7.886,12.532-13.001,17.906c-0.847-2.562-1.834-5.114-2.133-7.796c1.675-4.586,5.374-8.075,7.846-12.223
		c6.969-10.987,14.476-21.614,21.445-32.591C551.743,565.945,560.616,551.649,570.077,537.751z"/>
	<path fill="#D0D2D4" stroke="#D0D2D4" stroke-width="0.5" d="M607.922,534.391c3.15-2.552,7.776-2.991,11.395-1.166
		c16.759,7.866,33.668,15.433,50.387,23.389c5.114,2.223,7.427,7.846,6.929,13.17c-0.937,4.516-4.058,8.016-6.54,11.734
		c-4.596,1.246-9.601,1.844-14.007-0.379c-14.755-6.819-29.53-13.599-44.265-20.468c-2.792-1.436-5.892-2.582-8.045-4.925
		c-1.944-2.991-2.792-6.54-4.706-9.541C603.416,543.503,604.124,537.721,607.922,534.391 M607.005,542.058
		c-1.067,2.104-2.802,5.603-0.1,7.178c-3.28,1.705,0.329,4.955,2.373,5.972c10.159,4.805,20.408,9.491,30.617,14.217
		c7.627,3.33,14.955,7.427,22.87,10.069c-0.02-0.489-0.06-1.446-0.07-1.924c1.824,0.977,4.516,0.987,5.882-0.828
		c2.313-2.652,4.496-6.062,3.888-9.73c-1.296-2.662-2.752-5.523-5.723-6.58c-13.21-6.012-26.39-12.083-39.56-18.195
		c-3.858-1.705-7.527-4.147-11.844-4.417C611.86,536.046,608.331,538.937,607.005,542.058z"/>
	<path fill="#00ACA3" stroke="#00ACA3" stroke-width="0.5" d="M607.005,542.058c1.326-3.121,4.855-6.012,8.335-4.237
		c15.383,9.033,31.733,16.261,47.515,24.565c3.14,1.655,6.331,3.22,9.611,4.626c0.608,3.669-1.575,7.079-3.888,9.73
		c-1.366,1.814-4.058,1.805-5.882,0.828c-8.095-5.224-17.128-8.724-25.622-13.21c-10.309-4.546-19.909-10.498-30.168-15.124
		C604.203,547.661,605.938,544.161,607.005,542.058z"/>
	<path fill="#77ABF9" stroke="#77ABF9" stroke-width="0.5" d="M615.34,537.821c4.317,0.269,7.986,2.712,11.844,4.417
		c13.17,6.111,26.35,12.183,39.56,18.195c2.971,1.057,4.427,3.918,5.723,6.58c-3.28-1.406-6.47-2.971-9.611-4.626
		C647.073,554.081,630.723,546.853,615.34,537.821z"/>
	<path fill="#FAFBFA" stroke="#FAFBFA" stroke-width="0.5" d="M609.278,555.208c-2.044-1.017-5.653-4.267-2.373-5.972
		c10.259,4.626,19.86,10.578,30.168,15.124c8.494,4.486,17.527,7.986,25.622,13.21c0.01,0.479,0.05,1.436,0.07,1.924
		c-7.916-2.642-15.244-6.74-22.87-10.069C629.686,564.699,619.437,560.013,609.278,555.208z"/>
	<path fill="#00ACA3" stroke="#00ACA3" stroke-width="0.5" d="M676.633,569.783c13.738,5.563,26.519,13.3,39.919,19.63
		c1.814,0.758,4.207,2.502,2.064,4.407c-24.525,31.295-49.679,62.111-74.005,93.566c-3.37,3.021-7.118,5.603-10.887,8.105
		c-2.981,2.114-8.006,2.492-9.531-1.495c1.794-1.944,3.39-4.068,4.726-6.361c2.791-4.975,7.318-8.634,10.468-13.359
		c3.29-4.925,7.437-9.162,11.455-13.479c16.899-21.036,33.588-42.252,50.277-63.447c-1.735-1.176-3.499-2.303-5.354-3.24
		c-8.584-4.157-16.749-9.172-25.672-12.592C672.575,577.799,675.696,574.3,676.633,569.783z"/>
	<path fill="#D1D2D4" stroke="#D1D2D4" stroke-width="0.5" d="M521.156,652.213c3.958,6.49,5.224,14.117,7.796,21.176
		c9.87,27.885,18.773,56.109,28.593,84.005c1.436,4.895,3.898,9.491,4.636,14.586c-2.423,3.499-5.154,6.769-7.707,10.169
		c1.067,4.397,2.134,8.803,3.21,13.21c-2.034-3.848-3.24-8.056-3.788-12.362c-0.798-6.291-2.891-12.303-4.437-18.434
		c-8.255-31.624-16.241-63.328-24.755-94.882C523.18,663.937,521.216,658.215,521.156,652.213z"/>
	<path fill="#F4B476" stroke="#F4B476" stroke-width="0.5" d="M594.573,670.009c1.934-0.269,4.028-0.568,5.802,0.528
		c6.66,3.4,11.346,9.421,16.231,14.885c2.482,2.891,5.324,5.483,7.587,8.574c1.525,3.988,6.55,3.609,9.531,1.495
		c3.769-2.502,7.517-5.084,10.887-8.105c0.628,0.11,1.884,0.339,2.512,0.459c2.672,7.587-3.21,14.077-6.71,20.209
		c-5.114,8.075-7.996,17.417-13.928,25.004c-3.111,4.217-7.617,7.238-12.382,9.292c-4.576,0.907-9.312,0.379-13.948,0.409
		c-2.702-3.031-5.663-5.822-8.933-8.205c-4.576-3.659-8.345-8.175-12.143-12.592c-3.749-4.616-8.614-9.052-9.112-15.353
		c2.911-0.419,6.052-0.618,8.694,0.997c5.214,2.871,9.491,7.208,14.965,9.691c-4.197-5.693-9.86-10.109-13.878-15.951
		c-2.791-3.46-5.164-7.477-4.845-12.093c10.319-0.229,16.699,9.362,25.044,13.878c-1.456-2.472-3.17-4.775-5.204-6.779
		c-4.247-4.157-7.816-8.913-11.226-13.738c-1.545-2.064-2.283-4.556-2.811-7.019c3.579-0.259,7.278,0.299,10.079,2.732
		c9.292,6.161,15.732,15.523,24.525,22.262C608.52,690.327,598.461,682.002,594.573,670.009z"/>
	<path fill="#00ACA3" stroke="#00ACA3" stroke-width="0.5" d="M573.138,757.453c6.032-7.627,12.004-15.303,18.085-22.9
		c3.27,2.383,6.231,5.174,8.933,8.205c-12.831,16.639-26.23,32.85-39.021,49.519c-0.997,1.196-2.243,2.134-3.45,3.081
		c-1.077-4.407-2.143-8.813-3.21-13.21c2.552-3.4,5.284-6.67,7.707-10.169C565.322,766.765,569.569,762.358,573.138,757.453z"/>
	<path fill="#272C3F" stroke="#272C3F" stroke-width="0.5" d="M344.174,928.174c29.54-0.578,59.13,0.209,88.68-0.379
		c-0.319,41.484-0.229,82.968-0.229,124.452c-0.13,9.681,0.489,19.411-0.867,29.042c-0.1,39.171-0.02,78.342-0.04,117.513
		c0.03,9.332-0.618,18.673,0.07,27.995c14.366,3.091,29.002,4.387,43.597,5.902c0.309,5.653-0.778,11.256-1.037,16.899
		c-1.186,7.288-0.439,14.705-1.246,22.023c-0.917,9.272-1.685,18.564-1.685,27.895c-1.017,7.258-0.598,14.616-1.615,21.873
		c-0.08,11.555-2.074,22.99-2.303,34.545c-3.32,11.864-0.917,24.276-3.061,36.29c-1.735,10.229-0.239,20.657-1.575,30.926
		c-0.738,5.673-1.256,11.385-0.927,17.118c-0.02,5.364-0.12,10.757-1.037,16.061c-0.488,5.533-0.189,11.106-0.798,16.639
		c-0.728,7.059,0.159,14.237-1.276,21.226c-0.778,8.813-1.057,17.656-1.346,26.499c-1.795,11.904-1.067,24.047-2.841,35.951
		c0.199,10.717-2.393,21.245-2.004,31.963c0.229,7.776-1.296,15.483-0.867,23.269c-11.296-0.209-22.641-0.618-33.907,0.259
		c-1.585-0.409-0.847-2.393-1.087-3.529c0.219-9.691-1.017-19.311-0.917-28.982c-0.239-6.999,0.1-13.997-0.06-20.976
		c-0.329,3.709-0.02,7.487-0.857,11.156c0.04-13.349-1.137-26.659-1.186-40.008c-1.107-12.931-1.436-25.921-1.815-38.902
		c0.269-4.706-1.336-9.232-1.117-13.928c0.159-13.319-1.147-26.589-1.037-39.909c0.239-4.696-1.366-9.232-1.097-13.928
		c0.13-7.677-0.688-15.303-0.818-22.96c-1.964-11.515-0.568-23.289-1.545-34.894c-0.668-6.57-0.249-13.19-0.708-19.76
		c-1.555-7.228-0.409-14.676-1.266-21.963c-0.808-6.67-0.239-13.399-0.808-20.059c-1.685-12.313,0.349-24.904-2.363-37.097
		c-0.588-9.212-0.02-18.484-0.608-27.706c-1.007-6.62-0.419-13.329-0.867-19.989c-1.824-12.023,0-24.276-1.685-36.31
		c-0.389-4.167-0.06-8.365-0.628-12.502c-0.847-6.391-0.01-12.851-0.818-19.232c-0.997-5.852-0.419-11.804-0.798-17.686
		c-1.625-11.555-0.369-23.269-1.256-34.864c-0.867-5.613-0.618-11.306-0.937-16.948c-0.977-11.296-0.588-22.641-0.877-33.957
		c-2.243-15.004-1.535-30.268-1.944-45.402c-0.199-0.01-0.618-0.02-0.818-0.03c0.1,9.531-0.887,19.042-1.984,28.483
		c0.01,15.004-1.216,29.969-1.167,44.983c-1.635,9.531-0.788,19.241-1.725,28.862c0.169,9.79-1.396,19.481-1.296,29.261
		c0.06,6.879-0.818,13.718-0.818,20.597c-0.15,4.177,0.179,8.424-0.718,12.562c-0.867,6.052-0.09,12.213-0.718,18.294
		c-0.887,6.62-0.389,13.319-0.808,19.969c-1.775,12.901,0.15,26.081-2.542,38.892c-0.299,10.299-0.269,20.617-0.429,30.916
		c-0.758,12.951-1.984,25.881-1.844,38.872c-0.15,4.696,0.219,9.451-0.578,14.117c-0.937,6.919-0.04,13.958-1.037,20.876
		c-0.768,7.248,0,14.586-1.057,21.834c-0.528,11.296-1.535,22.561-1.286,33.897c0.349,5.025-1.246,9.91-1.057,14.935
		c-0.04,4.646-0.16,9.302-0.628,13.938c-0.508,8.654,0.11,17.367-1.097,25.981c-0.528,13.28-1.376,26.549-1.276,39.869
		c0.309,6.58-1.266,13.03-1.176,19.62c-0.798,6.68-0.459,13.419-0.857,20.129c-1.525,7.577-0.648,15.353-1.156,23.02
		c-0.827,9.95-0.558,19.949-0.907,29.919c-2.273,11.485,0.399,23.728-3.589,34.894c-0.299-5.184,0.439-10.329,1.376-15.403
		c-10.309,0.708-20.667-0.209-30.956,0.628c-0.837-8.325,0.169-16.759-1.396-25.014c-1.027-5.643-1.017-11.395-1.037-17.098
		c0.03-6.47-1.705-12.751-2.134-19.172c-0.479-9.302-2.143-18.524-2.004-27.855c-0.738-9.551-2.004-19.082-2.044-28.673
		c-0.947-9.272-1.854-18.564-2.014-27.885c-0.748-6.65-1.276-13.32-1.715-19.979c-0.329-5.503,0.199-11.076-0.937-16.49
		c-1.077-6.5-0.877-13.09-1.466-19.62c-1.027-6.201-0.768-12.502-1.456-18.723c-0.08-5.025-1.545-9.9-1.356-14.935
		c0.13-7.358-1.007-14.626-1.844-21.903c0.02-10.049-0.987-20.049-1.266-30.078c-0.598,2.333-0.728,4.745-0.947,7.148
		c0.439-12.014-0.269-24.027-1.695-35.951c-0.538-5.214,0.199-10.558-1.107-15.672c-1.595-5.603-0.818-11.465-1.117-17.188
		c0.1-6.042-1.097-11.984-1.047-18.005c0.07-3.968-1.216-7.856-0.678-11.814c7.926-0.678,15.822-1.605,23.718-2.502
		c6.201-0.239,12.462-1.176,18.175-3.699c0.219-22.571-0.518-45.123-0.319-67.684c0-29.58-0.02-59.16,0.01-88.73
		c0.02-4.676-0.927-9.292-0.897-13.958c0.04-29.241,0.01-58.492,0.02-87.733c-0.359-12.871,0.818-25.822-0.808-38.623
		C343.486,929.45,343.945,928.602,344.174,928.174z"/>
	<path fill="#B0B2B8" stroke="#B0B2B8" stroke-width="0.5" d="M343.177,929.171l0.08,0.708c1.625,12.801,0.449,25.752,0.808,38.623
		c-0.01,29.241,0.02,58.492-0.02,87.733c-0.03,4.666,0.917,9.282,0.897,13.958c-0.03,29.57-0.01,59.15-0.01,88.73
		c-0.199,22.561,0.538,45.113,0.319,67.684c-5.713,2.522-11.974,3.459-18.175,3.699c5.194-2.771,11.764-1.206,16.619-4.696
		c0.638-7.587-0.05-15.214,0.239-22.821c0.289-6.67-1.017-13.26-1.017-19.919c0.16-74.454-0.12-148.897-0.04-223.341
		C343.087,949.409,342.419,939.27,343.177,929.171z"/>
	<path fill="#D1D2D4" stroke="#D1D2D4" stroke-width="0.5" d="M195.376,957.006c9.481-0.668,18.992-0.13,28.493-0.289
		c32.182,0.06,64.374-0.13,96.566,0.09c0.359,5.443,0.738,10.977-0.01,16.41c-0.798,1.884-3.2,1.236-4.785,1.495
		c-34.914-0.08-69.818-0.02-104.722-0.04c-5.194-0.08-10.428,0.439-15.563-0.548C194.738,968.431,194.569,962.679,195.376,957.006z"
		/>
	<path fill="#D1D2D4" stroke="#D1D2D4" stroke-width="0.5" d="M456.283,956.777c41.484-0.09,82.958-0.14,124.442,0.03
		c1.725,5.593,0.877,11.555,0.668,17.307c-7.786,1.266-15.702,0.249-23.538,0.558c-29.58,0-59.16,0-88.73,0.01
		c-3.629-0.04-7.278,0.249-10.877-0.169c-1.396-0.05-2.104-0.748-2.124-2.124C455.555,967.205,455.844,961.961,456.283,956.777z"/>
	<path fill="#4D6698" stroke="#4D6698" stroke-width="0.5" d="M464.438,1392.223c2.143-12.014-0.259-24.426,3.061-36.29
		c1.685,11.485-1.964,22.791-1.575,34.276c0.199,6.799-0.658,13.549-1.495,20.288c-1.216,9.88,0.469,20.149-2.492,29.77
		c-0.329-5.733,0.189-11.445,0.927-17.118C464.199,1412.88,462.704,1402.452,464.438,1392.223z"/>
	<path fill="#516B9E" stroke="#516B9E" stroke-width="0.5" d="M326.049,1550.432c0.429,6.421,2.163,12.701,2.134,19.172
		c0.02,5.703,0.01,11.455,1.037,17.098c1.565,8.255,0.558,16.689,1.396,25.014c-2.712,0.568-5.384,1.306-8.075,1.934
		c1.954-2.034,5.154-1.595,7.198-3.24c0.429-4.257-0.558-8.444-1.226-12.602c-1.356-7.756,0.1-15.712-1.386-23.449
		C325.461,1566.493,325.75,1558.407,326.049,1550.432z"/>
	<path fill="#0C070E" stroke="#0C070E" stroke-width="0.5" d="M330.615,1611.716c10.289-0.838,20.647,0.08,30.956-0.628
		c-0.937,5.075-1.675,10.219-1.376,15.403l0.01,0.768c-4.377,0.967-8.833,1.526-13.26,2.134
		c-10.049,4.666-20.547,8.245-30.886,12.203c-7.986,2.572-16.041,5.104-24.356,6.331c-4.137,0.439-10.229,0.648-11.425-4.486
		c0.967-4.716,3.699-8.913,6.989-12.332c9.91-8.933,22.641-13.798,35.273-17.457
		C325.232,1613.021,327.903,1612.284,330.615,1611.716 M292.042,1629.9c-1.715,0.837-2.303,2.552-2.253,4.377
		c3.38,0.06,6.68-0.758,9.87-1.835c8.833-3.081,17.985-6.341,24.854-12.971c-1.466-2.572-4.456-1.535-6.749-1.017
		C308.702,1620.927,299.829,1624.596,292.042,1629.9z"/>
	<path fill="#0C070E" stroke="#0C070E" stroke-width="0.5" d="M417.86,1612.134c11.266-0.877,22.611-0.469,33.907-0.259
		c9.222,1.994,18.035,5.533,26.569,9.531c7.088,3.699,14.277,8.095,18.693,14.974c2.004,2.841,2.163,6.66,1.306,9.94
		c-2.532,2.333-6.181,1.665-9.302,1.655c-10.767-1.216-20.876-5.254-31.105-8.554c-7.248-2.991-14.765-5.344-21.794-8.823
		c-3.958-2.134-8.604-1.695-12.871-2.692c-1.585-0.379-4.157-0.598-4.267-2.662C418.757,1620.848,417.89,1616.521,417.86,1612.134
		 M456.423,1617.837c0.04,0.678,0.1,2.034,0.13,2.712c6.331,5.483,14.396,8.424,22.143,11.345c3.828,1.007,7.826,2.951,11.844,1.954
		l0.18-1.276c-3.998-4.506-9.85-6.899-15.204-9.451C469.353,1620.798,463.152,1617.717,456.423,1617.837z"/>
	<path fill="#FDFDFD" stroke="#FDFDFD" stroke-width="0.5" d="M292.042,1629.9c7.786-5.304,16.659-8.973,25.722-11.445
		c2.293-0.518,5.284-1.555,6.749,1.017c-6.869,6.63-16.021,9.89-24.854,12.971c-3.19,1.077-6.49,1.894-9.87,1.835
		C289.739,1632.452,290.328,1630.738,292.042,1629.9z"/>
	<path fill="#FEFEFE" stroke="#FEFEFE" stroke-width="0.5" d="M456.423,1617.837c6.73-0.12,12.931,2.961,19.092,5.284
		c5.354,2.552,11.206,4.945,15.204,9.451l-0.18,1.276c-4.018,0.997-8.016-0.947-11.844-1.954
		c-7.746-2.921-15.812-5.862-22.143-11.345C456.522,1619.871,456.463,1618.515,456.423,1617.837z"/>
</g>
</svg>
